# xmcd CD database file
#
# Track frame offsets:
#	150
#	16322
#	32385
#	46167
#	60000
#	76147
#	93463
#	112176
#	128416
#	142313
#	159083
#	177465
#	190925
#	207012
#	220481
#	233070
#	247293
#
# Disc length: 3376 seconds
#
# Revision: 0
# Processed by: cddbd v1.5.2PL0 Copyright (c) Steve Scherf et al.
# Submitted via: CDex 1.70beta2
#
DISCID=e00d2e11
DTITLE=Susan Jeffers - Tremblez mais Osez !
DYEAR=2003
DGENRE=New Age
TTITLE0=Introduction
TTITLE1=Le troisième niveau de la peur
TTITLE2=Se sentir mieux
TTITLE3=De la souffrance au pouvoir
TTITLE4=Soignez votre vocabulaire
TTITLE5=Des risques, oui, mais pas n'importe lesquels
TTITLE6=Garder le contrôle
TTITLE7=Pratiquez la pensée positive
TTITLE8=Eliminez le négatif
TTITLE9=Le partenaire qui résiste
TTITLE10=Restez lucide
TTITLE11=Le modèle gagnant
TTITLE12=Après la décision
TTITLE13=Dire oui, aussi à la Souffrance
TTITLE14=Savoir donner
TTITLE15=Chercher le spirituel
TTITLE16=Joie et souffrances
EXTD=YEAR: 2003
EXTT0=
EXTT1=
EXTT2=
EXTT3=
EXTT4=
EXTT5=
EXTT6=
EXTT7=
EXTT8=
EXTT9=
EXTT10=
EXTT11=
EXTT12=
EXTT13=
EXTT14=
EXTT15=
EXTT16=
PLAYORDER=
